<mxfile host="app.diagrams.net" agent="Mozilla/5.0 (Windows NT 10.0; Win64; x64) AppleWebKit/537.36 (KHTML, like Gecko) Chrome/135.0.0.0 Safari/537.36 Edg/135.0.0.0" version="26.2.10">
  <diagram name="Page-1" id="QX2Zo42gZ58pbzbO7by9">
    <mxGraphModel dx="1275" dy="570" grid="1" gridSize="10" guides="1" tooltips="1" connect="1" arrows="1" fold="1" page="1" pageScale="1" pageWidth="827" pageHeight="1169" math="0" shadow="0">
      <root>
        <mxCell id="0" />
        <mxCell id="1" parent="0" />
        <mxCell id="qxcU-tkXqdNGHr9PozQ2-1" value="" style="rounded=0;whiteSpace=wrap;html=1;" vertex="1" parent="1">
          <mxGeometry x="140" y="50" width="1050" height="130" as="geometry" />
        </mxCell>
        <mxCell id="qxcU-tkXqdNGHr9PozQ2-2" value="OA APP" style="text;html=1;align=center;verticalAlign=middle;whiteSpace=wrap;rounded=0;" vertex="1" parent="1">
          <mxGeometry x="140" y="50" width="60" height="30" as="geometry" />
        </mxCell>
        <mxCell id="qxcU-tkXqdNGHr9PozQ2-3" style="edgeStyle=orthogonalEdgeStyle;rounded=0;orthogonalLoop=1;jettySize=auto;html=1;exitX=1;exitY=0.5;exitDx=0;exitDy=0;entryX=0;entryY=0.5;entryDx=0;entryDy=0;" edge="1" parent="1" source="qxcU-tkXqdNGHr9PozQ2-4" target="qxcU-tkXqdNGHr9PozQ2-6">
          <mxGeometry relative="1" as="geometry" />
        </mxCell>
        <mxCell id="qxcU-tkXqdNGHr9PozQ2-4" value="INIT" style="rounded=0;whiteSpace=wrap;html=1;" vertex="1" parent="1">
          <mxGeometry x="150" y="87" width="70" height="40" as="geometry" />
        </mxCell>
        <mxCell id="qxcU-tkXqdNGHr9PozQ2-5" style="edgeStyle=orthogonalEdgeStyle;rounded=0;orthogonalLoop=1;jettySize=auto;html=1;exitX=1;exitY=0.5;exitDx=0;exitDy=0;entryX=0;entryY=0.5;entryDx=0;entryDy=0;" edge="1" parent="1" source="qxcU-tkXqdNGHr9PozQ2-6" target="qxcU-tkXqdNGHr9PozQ2-16">
          <mxGeometry relative="1" as="geometry" />
        </mxCell>
        <mxCell id="qxcU-tkXqdNGHr9PozQ2-6" value="Monitor" style="rounded=0;whiteSpace=wrap;html=1;" vertex="1" parent="1">
          <mxGeometry x="250" y="87" width="70" height="40" as="geometry" />
        </mxCell>
        <mxCell id="qxcU-tkXqdNGHr9PozQ2-7" style="edgeStyle=orthogonalEdgeStyle;rounded=0;orthogonalLoop=1;jettySize=auto;html=1;exitX=1;exitY=0.5;exitDx=0;exitDy=0;entryX=0;entryY=0.5;entryDx=0;entryDy=0;" edge="1" parent="1" source="qxcU-tkXqdNGHr9PozQ2-8" target="qxcU-tkXqdNGHr9PozQ2-10">
          <mxGeometry relative="1" as="geometry" />
        </mxCell>
        <mxCell id="qxcU-tkXqdNGHr9PozQ2-8" value="Stream Man" style="rounded=0;whiteSpace=wrap;html=1;" vertex="1" parent="1">
          <mxGeometry x="650" y="87" width="70" height="40" as="geometry" />
        </mxCell>
        <mxCell id="qxcU-tkXqdNGHr9PozQ2-9" style="edgeStyle=orthogonalEdgeStyle;rounded=0;orthogonalLoop=1;jettySize=auto;html=1;exitX=1;exitY=0.5;exitDx=0;exitDy=0;entryX=0;entryY=0.5;entryDx=0;entryDy=0;" edge="1" parent="1" source="qxcU-tkXqdNGHr9PozQ2-10" target="qxcU-tkXqdNGHr9PozQ2-12">
          <mxGeometry relative="1" as="geometry" />
        </mxCell>
        <mxCell id="qxcU-tkXqdNGHr9PozQ2-10" value="SCC Comm" style="rounded=0;whiteSpace=wrap;html=1;" vertex="1" parent="1">
          <mxGeometry x="750" y="87" width="70" height="40" as="geometry" />
        </mxCell>
        <mxCell id="qxcU-tkXqdNGHr9PozQ2-11" style="edgeStyle=orthogonalEdgeStyle;rounded=0;orthogonalLoop=1;jettySize=auto;html=1;exitX=1;exitY=0.5;exitDx=0;exitDy=0;" edge="1" parent="1" source="qxcU-tkXqdNGHr9PozQ2-12" target="qxcU-tkXqdNGHr9PozQ2-18">
          <mxGeometry relative="1" as="geometry" />
        </mxCell>
        <mxCell id="qxcU-tkXqdNGHr9PozQ2-12" value="CPLD Ctrl" style="rounded=0;whiteSpace=wrap;html=1;fillColor=#FFD966;" vertex="1" parent="1">
          <mxGeometry x="850" y="87" width="70" height="40" as="geometry" />
        </mxCell>
        <mxCell id="qxcU-tkXqdNGHr9PozQ2-13" style="edgeStyle=orthogonalEdgeStyle;rounded=0;orthogonalLoop=1;jettySize=auto;html=1;exitX=1;exitY=0.5;exitDx=0;exitDy=0;entryX=0;entryY=0.5;entryDx=0;entryDy=0;" edge="1" parent="1" source="qxcU-tkXqdNGHr9PozQ2-14" target="qxcU-tkXqdNGHr9PozQ2-79">
          <mxGeometry relative="1" as="geometry" />
        </mxCell>
        <mxCell id="qxcU-tkXqdNGHr9PozQ2-14" value="ALM" style="rounded=0;whiteSpace=wrap;html=1;" vertex="1" parent="1">
          <mxGeometry x="450" y="87" width="70" height="40" as="geometry" />
        </mxCell>
        <mxCell id="qxcU-tkXqdNGHr9PozQ2-15" style="edgeStyle=orthogonalEdgeStyle;rounded=0;orthogonalLoop=1;jettySize=auto;html=1;exitX=1;exitY=0.5;exitDx=0;exitDy=0;entryX=0;entryY=0.5;entryDx=0;entryDy=0;" edge="1" parent="1" source="qxcU-tkXqdNGHr9PozQ2-16" target="qxcU-tkXqdNGHr9PozQ2-14">
          <mxGeometry relative="1" as="geometry" />
        </mxCell>
        <mxCell id="qxcU-tkXqdNGHr9PozQ2-16" value="Control" style="rounded=0;whiteSpace=wrap;html=1;" vertex="1" parent="1">
          <mxGeometry x="350" y="87" width="70" height="40" as="geometry" />
        </mxCell>
        <mxCell id="qxcU-tkXqdNGHr9PozQ2-17" style="edgeStyle=orthogonalEdgeStyle;rounded=0;orthogonalLoop=1;jettySize=auto;html=1;exitX=1;exitY=0.5;exitDx=0;exitDy=0;entryX=0;entryY=0.5;entryDx=0;entryDy=0;" edge="1" parent="1" source="qxcU-tkXqdNGHr9PozQ2-18" target="qxcU-tkXqdNGHr9PozQ2-20">
          <mxGeometry relative="1" as="geometry" />
        </mxCell>
        <mxCell id="qxcU-tkXqdNGHr9PozQ2-18" value="DGE Calc" style="rounded=0;whiteSpace=wrap;html=1;fillColor=#FFD966;" vertex="1" parent="1">
          <mxGeometry x="950" y="87" width="70" height="40" as="geometry" />
        </mxCell>
        <mxCell id="qxcU-tkXqdNGHr9PozQ2-19" style="edgeStyle=orthogonalEdgeStyle;rounded=0;orthogonalLoop=1;jettySize=auto;html=1;exitX=0.5;exitY=1;exitDx=0;exitDy=0;entryX=0.5;entryY=1;entryDx=0;entryDy=0;" edge="1" parent="1" source="qxcU-tkXqdNGHr9PozQ2-20" target="qxcU-tkXqdNGHr9PozQ2-6">
          <mxGeometry relative="1" as="geometry">
            <Array as="points">
              <mxPoint x="1085" y="160" />
              <mxPoint x="285" y="160" />
            </Array>
          </mxGeometry>
        </mxCell>
        <mxCell id="qxcU-tkXqdNGHr9PozQ2-20" value="OSC Ctrl" style="rounded=0;whiteSpace=wrap;html=1;fillColor=#FFD966;" vertex="1" parent="1">
          <mxGeometry x="1050" y="87" width="70" height="40" as="geometry" />
        </mxCell>
        <mxCell id="qxcU-tkXqdNGHr9PozQ2-21" value="v" style="rounded=0;whiteSpace=wrap;html=1;" vertex="1" parent="1">
          <mxGeometry x="140" y="190" width="1050" height="340" as="geometry" />
        </mxCell>
        <mxCell id="qxcU-tkXqdNGHr9PozQ2-22" value="Function Block" style="text;html=1;align=center;verticalAlign=middle;whiteSpace=wrap;rounded=0;" vertex="1" parent="1">
          <mxGeometry x="140" y="190" width="100" height="30" as="geometry" />
        </mxCell>
        <mxCell id="qxcU-tkXqdNGHr9PozQ2-23" value="" style="rounded=0;whiteSpace=wrap;html=1;" vertex="1" parent="1">
          <mxGeometry x="150" y="220" width="120" height="300" as="geometry" />
        </mxCell>
        <mxCell id="qxcU-tkXqdNGHr9PozQ2-24" value="Monitor" style="text;html=1;align=center;verticalAlign=middle;whiteSpace=wrap;rounded=0;" vertex="1" parent="1">
          <mxGeometry x="150" y="220" width="60" height="30" as="geometry" />
        </mxCell>
        <mxCell id="qxcU-tkXqdNGHr9PozQ2-25" value="" style="rounded=0;whiteSpace=wrap;html=1;" vertex="1" parent="1">
          <mxGeometry x="280" y="220" width="120" height="300" as="geometry" />
        </mxCell>
        <mxCell id="qxcU-tkXqdNGHr9PozQ2-26" value="Control" style="text;html=1;align=center;verticalAlign=middle;whiteSpace=wrap;rounded=0;" vertex="1" parent="1">
          <mxGeometry x="280" y="220" width="60" height="30" as="geometry" />
        </mxCell>
        <mxCell id="qxcU-tkXqdNGHr9PozQ2-27" value="" style="rounded=0;whiteSpace=wrap;html=1;" vertex="1" parent="1">
          <mxGeometry x="410" y="220" width="120" height="300" as="geometry" />
        </mxCell>
        <mxCell id="qxcU-tkXqdNGHr9PozQ2-28" value="ALM" style="text;html=1;align=center;verticalAlign=middle;whiteSpace=wrap;rounded=0;" vertex="1" parent="1">
          <mxGeometry x="400" y="220" width="60" height="30" as="geometry" />
        </mxCell>
        <mxCell id="qxcU-tkXqdNGHr9PozQ2-29" value="" style="rounded=0;whiteSpace=wrap;html=1;" vertex="1" parent="1">
          <mxGeometry x="535" y="220" width="120" height="300" as="geometry" />
        </mxCell>
        <mxCell id="qxcU-tkXqdNGHr9PozQ2-30" value="Stream Man" style="text;html=1;align=center;verticalAlign=middle;whiteSpace=wrap;rounded=0;" vertex="1" parent="1">
          <mxGeometry x="530" y="220" width="80" height="30" as="geometry" />
        </mxCell>
        <mxCell id="qxcU-tkXqdNGHr9PozQ2-31" value="" style="rounded=0;whiteSpace=wrap;html=1;" vertex="1" parent="1">
          <mxGeometry x="661" y="220" width="120" height="300" as="geometry" />
        </mxCell>
        <mxCell id="qxcU-tkXqdNGHr9PozQ2-32" value="SCC Comm" style="text;html=1;align=center;verticalAlign=middle;whiteSpace=wrap;rounded=0;" vertex="1" parent="1">
          <mxGeometry x="661" y="220" width="80" height="30" as="geometry" />
        </mxCell>
        <mxCell id="qxcU-tkXqdNGHr9PozQ2-33" value="CT_MON" style="rounded=0;whiteSpace=wrap;html=1;" vertex="1" parent="1">
          <mxGeometry x="157.5" y="250" width="105" height="20" as="geometry" />
        </mxCell>
        <mxCell id="qxcU-tkXqdNGHr9PozQ2-34" value="FT_MON" style="rounded=0;whiteSpace=wrap;html=1;" vertex="1" parent="1">
          <mxGeometry x="157.5" y="270" width="105" height="20" as="geometry" />
        </mxCell>
        <mxCell id="qxcU-tkXqdNGHr9PozQ2-35" value="Pump_MON" style="rounded=0;whiteSpace=wrap;html=1;" vertex="1" parent="1">
          <mxGeometry x="157.5" y="290" width="105" height="20" as="geometry" />
        </mxCell>
        <mxCell id="qxcU-tkXqdNGHr9PozQ2-36" value="Vol_MON" style="rounded=0;whiteSpace=wrap;html=1;" vertex="1" parent="1">
          <mxGeometry x="157.5" y="310" width="105" height="20" as="geometry" />
        </mxCell>
        <mxCell id="qxcU-tkXqdNGHr9PozQ2-37" value="VOA_MON" style="rounded=0;whiteSpace=wrap;html=1;" vertex="1" parent="1">
          <mxGeometry x="157.5" y="330" width="105" height="20" as="geometry" />
        </mxCell>
        <mxCell id="qxcU-tkXqdNGHr9PozQ2-38" value="MODE switch" style="rounded=0;whiteSpace=wrap;html=1;" vertex="1" parent="1">
          <mxGeometry x="287.5" y="250" width="105" height="20" as="geometry" />
        </mxCell>
        <mxCell id="qxcU-tkXqdNGHr9PozQ2-39" value="Gain range switch" style="rounded=0;whiteSpace=wrap;html=1;" vertex="1" parent="1">
          <mxGeometry x="287.5" y="270" width="105" height="20" as="geometry" />
        </mxCell>
        <mxCell id="qxcU-tkXqdNGHr9PozQ2-40" value="TILT Ctrl" style="rounded=0;whiteSpace=wrap;html=1;" vertex="1" parent="1">
          <mxGeometry x="287.5" y="290" width="105" height="20" as="geometry" />
        </mxCell>
        <mxCell id="qxcU-tkXqdNGHr9PozQ2-41" value="PLIM" style="rounded=0;whiteSpace=wrap;html=1;" vertex="1" parent="1">
          <mxGeometry x="287.5" y="310" width="105" height="20" as="geometry" />
        </mxCell>
        <mxCell id="qxcU-tkXqdNGHr9PozQ2-42" value="Pad VOA_Ctrl" style="rounded=0;whiteSpace=wrap;html=1;" vertex="1" parent="1">
          <mxGeometry x="287.5" y="330" width="105" height="20" as="geometry" />
        </mxCell>
        <mxCell id="qxcU-tkXqdNGHr9PozQ2-43" value="Pump_Ctrl" style="rounded=0;whiteSpace=wrap;html=1;" vertex="1" parent="1">
          <mxGeometry x="287.5" y="350" width="105" height="20" as="geometry" />
        </mxCell>
        <mxCell id="qxcU-tkXqdNGHr9PozQ2-44" value="PD_Ctrl" style="rounded=0;whiteSpace=wrap;html=1;" vertex="1" parent="1">
          <mxGeometry x="287.5" y="370" width="105" height="20" as="geometry" />
        </mxCell>
        <mxCell id="qxcU-tkXqdNGHr9PozQ2-45" value="CT_Ctrl" style="rounded=0;whiteSpace=wrap;html=1;" vertex="1" parent="1">
          <mxGeometry x="287.5" y="390" width="105" height="20" as="geometry" />
        </mxCell>
        <mxCell id="qxcU-tkXqdNGHr9PozQ2-46" value="FT_Ctrl" style="rounded=0;whiteSpace=wrap;html=1;" vertex="1" parent="1">
          <mxGeometry x="287.5" y="410" width="105" height="20" as="geometry" />
        </mxCell>
        <mxCell id="qxcU-tkXqdNGHr9PozQ2-47" value="CLI" style="rounded=0;whiteSpace=wrap;html=1;" vertex="1" parent="1">
          <mxGeometry x="542.5" y="250" width="105" height="20" as="geometry" />
        </mxCell>
        <mxCell id="qxcU-tkXqdNGHr9PozQ2-48" value="OOP" style="rounded=0;whiteSpace=wrap;html=1;" vertex="1" parent="1">
          <mxGeometry x="542.5" y="270" width="105" height="20" as="geometry" />
        </mxCell>
        <mxCell id="qxcU-tkXqdNGHr9PozQ2-49" value="XModem" style="rounded=0;whiteSpace=wrap;html=1;" vertex="1" parent="1">
          <mxGeometry x="542.5" y="290" width="105" height="20" as="geometry" />
        </mxCell>
        <mxCell id="qxcU-tkXqdNGHr9PozQ2-50" value="Command Proc" style="rounded=0;whiteSpace=wrap;html=1;" vertex="1" parent="1">
          <mxGeometry x="668.5" y="250" width="105" height="20" as="geometry" />
        </mxCell>
        <mxCell id="qxcU-tkXqdNGHr9PozQ2-51" value="Telemetry" style="rounded=0;whiteSpace=wrap;html=1;fillColor=#FFD966;" vertex="1" parent="1">
          <mxGeometry x="668.5" y="270" width="105" height="20" as="geometry" />
        </mxCell>
        <mxCell id="qxcU-tkXqdNGHr9PozQ2-52" value="UPGD" style="rounded=0;whiteSpace=wrap;html=1;" vertex="1" parent="1">
          <mxGeometry x="542.5" y="310" width="105" height="20" as="geometry" />
        </mxCell>
        <mxCell id="qxcU-tkXqdNGHr9PozQ2-53" value="Zip/Unzip" style="rounded=0;whiteSpace=wrap;html=1;fillColor=#FFD966;" vertex="1" parent="1">
          <mxGeometry x="542.5" y="330" width="105" height="20" as="geometry" />
        </mxCell>
        <mxCell id="qxcU-tkXqdNGHr9PozQ2-54" value="Reset" style="rounded=0;whiteSpace=wrap;html=1;" vertex="1" parent="1">
          <mxGeometry x="287.5" y="430" width="105" height="20" as="geometry" />
        </mxCell>
        <mxCell id="qxcU-tkXqdNGHr9PozQ2-55" value="PDnLos" style="rounded=0;whiteSpace=wrap;html=1;" vertex="1" parent="1">
          <mxGeometry x="415" y="250" width="55" height="20" as="geometry" />
        </mxCell>
        <mxCell id="qxcU-tkXqdNGHr9PozQ2-56" value="CT" style="rounded=0;whiteSpace=wrap;html=1;" vertex="1" parent="1">
          <mxGeometry x="472" y="250" width="55" height="20" as="geometry" />
        </mxCell>
        <mxCell id="qxcU-tkXqdNGHr9PozQ2-57" value="FT" style="rounded=0;whiteSpace=wrap;html=1;" vertex="1" parent="1">
          <mxGeometry x="415" y="270" width="55" height="20" as="geometry" />
        </mxCell>
        <mxCell id="qxcU-tkXqdNGHr9PozQ2-58" value="OOG" style="rounded=0;whiteSpace=wrap;html=1;" vertex="1" parent="1">
          <mxGeometry x="472" y="270" width="55" height="20" as="geometry" />
        </mxCell>
        <mxCell id="qxcU-tkXqdNGHr9PozQ2-59" value="LOP" style="rounded=0;whiteSpace=wrap;html=1;" vertex="1" parent="1">
          <mxGeometry x="415" y="290" width="55" height="20" as="geometry" />
        </mxCell>
        <mxCell id="qxcU-tkXqdNGHr9PozQ2-60" value="EOP" style="rounded=0;whiteSpace=wrap;html=1;" vertex="1" parent="1">
          <mxGeometry x="472" y="290" width="55" height="20" as="geometry" />
        </mxCell>
        <mxCell id="qxcU-tkXqdNGHr9PozQ2-61" value="RFL" style="rounded=0;whiteSpace=wrap;html=1;" vertex="1" parent="1">
          <mxGeometry x="415" y="310" width="55" height="20" as="geometry" />
        </mxCell>
        <mxCell id="qxcU-tkXqdNGHr9PozQ2-62" value="APR" style="rounded=0;whiteSpace=wrap;html=1;" vertex="1" parent="1">
          <mxGeometry x="472" y="310" width="55" height="20" as="geometry" />
        </mxCell>
        <mxCell id="qxcU-tkXqdNGHr9PozQ2-63" value="VOA" style="rounded=0;whiteSpace=wrap;html=1;" vertex="1" parent="1">
          <mxGeometry x="415" y="330" width="55" height="20" as="geometry" />
        </mxCell>
        <mxCell id="qxcU-tkXqdNGHr9PozQ2-64" value="VLOS" style="rounded=0;whiteSpace=wrap;html=1;" vertex="1" parent="1">
          <mxGeometry x="472" y="330" width="55" height="20" as="geometry" />
        </mxCell>
        <mxCell id="qxcU-tkXqdNGHr9PozQ2-65" value="ALS" style="rounded=0;whiteSpace=wrap;html=1;" vertex="1" parent="1">
          <mxGeometry x="415" y="350" width="55" height="20" as="geometry" />
        </mxCell>
        <mxCell id="qxcU-tkXqdNGHr9PozQ2-66" value="LOC" style="rounded=0;whiteSpace=wrap;html=1;" vertex="1" parent="1">
          <mxGeometry x="472" y="350" width="55" height="20" as="geometry" />
        </mxCell>
        <mxCell id="qxcU-tkXqdNGHr9PozQ2-67" value="SWF" style="rounded=0;whiteSpace=wrap;html=1;" vertex="1" parent="1">
          <mxGeometry x="415" y="370" width="55" height="20" as="geometry" />
        </mxCell>
        <mxCell id="qxcU-tkXqdNGHr9PozQ2-68" value="Pump TMP" style="rounded=0;whiteSpace=wrap;html=1;" vertex="1" parent="1">
          <mxGeometry x="472" y="370" width="55" height="20" as="geometry" />
        </mxCell>
        <mxCell id="qxcU-tkXqdNGHr9PozQ2-69" value="ILD" style="rounded=0;whiteSpace=wrap;html=1;" vertex="1" parent="1">
          <mxGeometry x="415" y="390" width="55" height="20" as="geometry" />
        </mxCell>
        <mxCell id="qxcU-tkXqdNGHr9PozQ2-70" value="BFM" style="rounded=0;whiteSpace=wrap;html=1;" vertex="1" parent="1">
          <mxGeometry x="472" y="390" width="55" height="20" as="geometry" />
        </mxCell>
        <mxCell id="qxcU-tkXqdNGHr9PozQ2-71" value="ITEC" style="rounded=0;whiteSpace=wrap;html=1;" vertex="1" parent="1">
          <mxGeometry x="415" y="410" width="55" height="20" as="geometry" />
        </mxCell>
        <mxCell id="qxcU-tkXqdNGHr9PozQ2-72" value="SLD" style="rounded=0;whiteSpace=wrap;html=1;" vertex="1" parent="1">
          <mxGeometry x="472" y="410" width="55" height="20" as="geometry" />
        </mxCell>
        <mxCell id="qxcU-tkXqdNGHr9PozQ2-73" value="ALS Dis" style="rounded=0;whiteSpace=wrap;html=1;" vertex="1" parent="1">
          <mxGeometry x="415" y="430" width="55" height="20" as="geometry" />
        </mxCell>
        <mxCell id="qxcU-tkXqdNGHr9PozQ2-74" value="APR Dis" style="rounded=0;whiteSpace=wrap;html=1;" vertex="1" parent="1">
          <mxGeometry x="472" y="430" width="55" height="20" as="geometry" />
        </mxCell>
        <mxCell id="qxcU-tkXqdNGHr9PozQ2-75" value="Data Err" style="rounded=0;whiteSpace=wrap;html=1;" vertex="1" parent="1">
          <mxGeometry x="415" y="450" width="55" height="20" as="geometry" />
        </mxCell>
        <mxCell id="qxcU-tkXqdNGHr9PozQ2-76" value="NRDY" style="rounded=0;whiteSpace=wrap;html=1;" vertex="1" parent="1">
          <mxGeometry x="472" y="450" width="55" height="20" as="geometry" />
        </mxCell>
        <mxCell id="qxcU-tkXqdNGHr9PozQ2-77" value="VOL" style="rounded=0;whiteSpace=wrap;html=1;" vertex="1" parent="1">
          <mxGeometry x="415" y="470" width="55" height="20" as="geometry" />
        </mxCell>
        <mxCell id="qxcU-tkXqdNGHr9PozQ2-78" style="edgeStyle=orthogonalEdgeStyle;rounded=0;orthogonalLoop=1;jettySize=auto;html=1;exitX=1;exitY=0.5;exitDx=0;exitDy=0;entryX=0;entryY=0.5;entryDx=0;entryDy=0;" edge="1" parent="1" source="qxcU-tkXqdNGHr9PozQ2-79" target="qxcU-tkXqdNGHr9PozQ2-8">
          <mxGeometry relative="1" as="geometry" />
        </mxCell>
        <mxCell id="qxcU-tkXqdNGHr9PozQ2-79" value="Safety" style="rounded=0;whiteSpace=wrap;html=1;" vertex="1" parent="1">
          <mxGeometry x="550" y="87" width="70" height="40" as="geometry" />
        </mxCell>
        <mxCell id="qxcU-tkXqdNGHr9PozQ2-80" value="" style="rounded=0;whiteSpace=wrap;html=1;" vertex="1" parent="1">
          <mxGeometry x="785" y="220" width="120" height="300" as="geometry" />
        </mxCell>
        <mxCell id="qxcU-tkXqdNGHr9PozQ2-81" value="Switch_MON" style="rounded=0;whiteSpace=wrap;html=1;" vertex="1" parent="1">
          <mxGeometry x="157.5" y="350" width="105" height="20" as="geometry" />
        </mxCell>
        <mxCell id="qxcU-tkXqdNGHr9PozQ2-82" value="Switch_Ctrl" style="rounded=0;whiteSpace=wrap;html=1;" vertex="1" parent="1">
          <mxGeometry x="287.5" y="450" width="105" height="20" as="geometry" />
        </mxCell>
        <mxCell id="qxcU-tkXqdNGHr9PozQ2-83" value="Safety" style="text;html=1;align=center;verticalAlign=middle;whiteSpace=wrap;rounded=0;" vertex="1" parent="1">
          <mxGeometry x="781" y="220" width="80" height="30" as="geometry" />
        </mxCell>
        <mxCell id="qxcU-tkXqdNGHr9PozQ2-84" value="Automatic Shutdown" style="rounded=0;whiteSpace=wrap;html=1;" vertex="1" parent="1">
          <mxGeometry x="792.5" y="250" width="105" height="20" as="geometry" />
        </mxCell>
        <mxCell id="qxcU-tkXqdNGHr9PozQ2-85" value="ALS" style="rounded=0;whiteSpace=wrap;html=1;" vertex="1" parent="1">
          <mxGeometry x="792.5" y="270" width="105" height="20" as="geometry" />
        </mxCell>
        <mxCell id="qxcU-tkXqdNGHr9PozQ2-86" value="APR" style="rounded=0;whiteSpace=wrap;html=1;" vertex="1" parent="1">
          <mxGeometry x="792.5" y="290" width="105" height="20" as="geometry" />
        </mxCell>
        <mxCell id="qxcU-tkXqdNGHr9PozQ2-87" value="PLIM" style="rounded=0;whiteSpace=wrap;html=1;" vertex="1" parent="1">
          <mxGeometry x="792.5" y="310" width="105" height="20" as="geometry" />
        </mxCell>
        <mxCell id="qxcU-tkXqdNGHr9PozQ2-88" value="EOP" style="rounded=0;whiteSpace=wrap;html=1;" vertex="1" parent="1">
          <mxGeometry x="792.5" y="330" width="105" height="20" as="geometry" />
        </mxCell>
        <mxCell id="qxcU-tkXqdNGHr9PozQ2-89" value="Force Shutdown" style="rounded=0;whiteSpace=wrap;html=1;" vertex="1" parent="1">
          <mxGeometry x="792.5" y="350" width="105" height="20" as="geometry" />
        </mxCell>
        <mxCell id="qxcU-tkXqdNGHr9PozQ2-90" value="Force APR" style="rounded=0;whiteSpace=wrap;html=1;" vertex="1" parent="1">
          <mxGeometry x="792.5" y="370" width="105" height="20" as="geometry" />
        </mxCell>
        <mxCell id="qxcU-tkXqdNGHr9PozQ2-91" value="Safety Override" style="rounded=0;whiteSpace=wrap;html=1;" vertex="1" parent="1">
          <mxGeometry x="792.5" y="390" width="105" height="20" as="geometry" />
        </mxCell>
        <mxCell id="qxcU-tkXqdNGHr9PozQ2-92" value="" style="rounded=0;whiteSpace=wrap;html=1;" vertex="1" parent="1">
          <mxGeometry x="140" y="540" width="1050" height="240" as="geometry" />
        </mxCell>
        <mxCell id="qxcU-tkXqdNGHr9PozQ2-93" value="Device Driver" style="text;html=1;align=center;verticalAlign=middle;whiteSpace=wrap;rounded=0;" vertex="1" parent="1">
          <mxGeometry x="127" y="540" width="150" height="30" as="geometry" />
        </mxCell>
        <mxCell id="qxcU-tkXqdNGHr9PozQ2-94" value="" style="rounded=0;whiteSpace=wrap;html=1;" vertex="1" parent="1">
          <mxGeometry x="150" y="570" width="120" height="200" as="geometry" />
        </mxCell>
        <mxCell id="qxcU-tkXqdNGHr9PozQ2-95" value="Pump" style="text;html=1;align=center;verticalAlign=middle;whiteSpace=wrap;rounded=0;" vertex="1" parent="1">
          <mxGeometry x="150" y="570" width="60" height="30" as="geometry" />
        </mxCell>
        <mxCell id="qxcU-tkXqdNGHr9PozQ2-96" value="" style="rounded=0;whiteSpace=wrap;html=1;" vertex="1" parent="1">
          <mxGeometry x="277" y="570" width="120" height="200" as="geometry" />
        </mxCell>
        <mxCell id="qxcU-tkXqdNGHr9PozQ2-97" value="VOA" style="text;html=1;align=center;verticalAlign=middle;whiteSpace=wrap;rounded=0;" vertex="1" parent="1">
          <mxGeometry x="277" y="570" width="60" height="30" as="geometry" />
        </mxCell>
        <mxCell id="qxcU-tkXqdNGHr9PozQ2-98" value="" style="rounded=0;whiteSpace=wrap;html=1;" vertex="1" parent="1">
          <mxGeometry x="402" y="570" width="120" height="200" as="geometry" />
        </mxCell>
        <mxCell id="qxcU-tkXqdNGHr9PozQ2-99" value="PD" style="text;html=1;align=center;verticalAlign=middle;whiteSpace=wrap;rounded=0;" vertex="1" parent="1">
          <mxGeometry x="399" y="570" width="60" height="30" as="geometry" />
        </mxCell>
        <mxCell id="qxcU-tkXqdNGHr9PozQ2-100" value="" style="rounded=0;whiteSpace=wrap;html=1;" vertex="1" parent="1">
          <mxGeometry x="527" y="570" width="120" height="200" as="geometry" />
        </mxCell>
        <mxCell id="qxcU-tkXqdNGHr9PozQ2-101" value="Temp" style="text;html=1;align=center;verticalAlign=middle;whiteSpace=wrap;rounded=0;" vertex="1" parent="1">
          <mxGeometry x="520" y="570" width="60" height="30" as="geometry" />
        </mxCell>
        <mxCell id="qxcU-tkXqdNGHr9PozQ2-102" value="" style="rounded=0;whiteSpace=wrap;html=1;" vertex="1" parent="1">
          <mxGeometry x="140" y="790" width="1050" height="110" as="geometry" />
        </mxCell>
        <mxCell id="qxcU-tkXqdNGHr9PozQ2-103" value="SYS Lib Driver" style="text;html=1;align=center;verticalAlign=middle;whiteSpace=wrap;rounded=0;" vertex="1" parent="1">
          <mxGeometry x="137" y="790" width="130" height="30" as="geometry" />
        </mxCell>
        <mxCell id="qxcU-tkXqdNGHr9PozQ2-104" value="" style="rounded=0;whiteSpace=wrap;html=1;" vertex="1" parent="1">
          <mxGeometry x="140" y="910" width="1050" height="40" as="geometry" />
        </mxCell>
        <mxCell id="qxcU-tkXqdNGHr9PozQ2-105" value="HW Platform (PS + PL)" style="text;html=1;align=center;verticalAlign=middle;whiteSpace=wrap;rounded=0;" vertex="1" parent="1">
          <mxGeometry x="150" y="915" width="130" height="35" as="geometry" />
        </mxCell>
        <mxCell id="qxcU-tkXqdNGHr9PozQ2-106" value="Pump_IO" style="rounded=0;whiteSpace=wrap;html=1;" vertex="1" parent="1">
          <mxGeometry x="157.5" y="600" width="105" height="20" as="geometry" />
        </mxCell>
        <mxCell id="qxcU-tkXqdNGHr9PozQ2-107" value="Pump_Mon&lt;span style=&quot;color: rgba(0, 0, 0, 0); font-family: monospace; font-size: 0px; text-align: start; text-wrap: nowrap;&quot;&gt;%3CmxGraphModel%3E%3Croot%3E%3CmxCell%20id%3D%220%22%2F%3E%3CmxCell%20id%3D%221%22%20parent%3D%220%22%2F%3E%3CmxCell%20id%3D%222%22%20value%3D%22Pump_IO%22%20style%3D%22rounded%3D0%3BwhiteSpace%3Dwrap%3Bhtml%3D1%3B%22%20vertex%3D%221%22%20parent%3D%221%22%3E%3CmxGeometry%20x%3D%22157.5%22%20y%3D%22600%22%20width%3D%22105%22%20height%3D%2220%22%20as%3D%22geometry%22%2F%3E%3C%2FmxCell%3E%3C%2Froot%3E%3C%2FmxGraphModel%3E&lt;/span&gt;" style="rounded=0;whiteSpace=wrap;html=1;" vertex="1" parent="1">
          <mxGeometry x="157.5" y="620" width="105" height="20" as="geometry" />
        </mxCell>
        <mxCell id="qxcU-tkXqdNGHr9PozQ2-108" value="Pump_FF/FB" style="rounded=0;whiteSpace=wrap;html=1;" vertex="1" parent="1">
          <mxGeometry x="157.5" y="640" width="105" height="20" as="geometry" />
        </mxCell>
        <mxCell id="qxcU-tkXqdNGHr9PozQ2-109" value="Pump_ASE&lt;span style=&quot;color: rgba(0, 0, 0, 0); font-family: monospace; font-size: 0px; text-align: start; text-wrap: nowrap;&quot;&gt;%3CmxGraphModel%3E%3Croot%3E%3CmxCell%20id%3D%220%22%2F%3E%3CmxCell%20id%3D%221%22%20parent%3D%220%22%2F%3E%3CmxCell%20id%3D%222%22%20value%3D%22Pump_IO%22%20style%3D%22rounded%3D0%3BwhiteSpace%3Dwrap%3Bhtml%3D1%3B%22%20vertex%3D%221%22%20parent%3D%221%22%3E%3CmxGeometry%20x%3D%22157.5%22%20y%3D%22600%22%20width%3D%22105%22%20height%3D%2220%22%20as%3D%22geometry%22%2F%3E%3C%2FmxCell%3E%3C%2Froot%3E%3C%2FmxGraphModel%3E&lt;/span&gt;" style="rounded=0;whiteSpace=wrap;html=1;" vertex="1" parent="1">
          <mxGeometry x="157.5" y="660" width="105" height="20" as="geometry" />
        </mxCell>
        <mxCell id="qxcU-tkXqdNGHr9PozQ2-110" value="Tilt VOA Ctrl" style="rounded=0;whiteSpace=wrap;html=1;" vertex="1" parent="1">
          <mxGeometry x="284.5" y="600" width="105" height="20" as="geometry" />
        </mxCell>
        <mxCell id="qxcU-tkXqdNGHr9PozQ2-111" value="Pad VOA Ctrl" style="rounded=0;whiteSpace=wrap;html=1;" vertex="1" parent="1">
          <mxGeometry x="284.5" y="620" width="105" height="20" as="geometry" />
        </mxCell>
        <mxCell id="qxcU-tkXqdNGHr9PozQ2-112" value="OSC VOA Ctrl" style="rounded=0;whiteSpace=wrap;html=1;fillColor=#FFD966;" vertex="1" parent="1">
          <mxGeometry x="284.5" y="640" width="105" height="20" as="geometry" />
        </mxCell>
        <mxCell id="qxcU-tkXqdNGHr9PozQ2-113" value="VOA_MODE" style="rounded=0;whiteSpace=wrap;html=1;" vertex="1" parent="1">
          <mxGeometry x="284.5" y="660" width="105" height="20" as="geometry" />
        </mxCell>
        <mxCell id="qxcU-tkXqdNGHr9PozQ2-114" value="PD Mon" style="rounded=0;whiteSpace=wrap;html=1;" vertex="1" parent="1">
          <mxGeometry x="409.5" y="600" width="105" height="20" as="geometry" />
        </mxCell>
        <mxCell id="qxcU-tkXqdNGHr9PozQ2-115" value="LPF" style="rounded=0;whiteSpace=wrap;html=1;" vertex="1" parent="1">
          <mxGeometry x="409.5" y="620" width="105" height="20" as="geometry" />
        </mxCell>
        <mxCell id="qxcU-tkXqdNGHr9PozQ2-116" value="Range Check" style="rounded=0;whiteSpace=wrap;html=1;fillColor=#FFD966;" vertex="1" parent="1">
          <mxGeometry x="409.5" y="640" width="105" height="20" as="geometry" />
        </mxCell>
        <mxCell id="qxcU-tkXqdNGHr9PozQ2-117" value="Tide Marking" style="rounded=0;whiteSpace=wrap;html=1;fillColor=#FFD966;" vertex="1" parent="1">
          <mxGeometry x="409.5" y="660" width="105" height="20" as="geometry" />
        </mxCell>
        <mxCell id="qxcU-tkXqdNGHr9PozQ2-118" value="CT_Mon" style="rounded=0;whiteSpace=wrap;html=1;" vertex="1" parent="1">
          <mxGeometry x="535" y="600" width="105" height="20" as="geometry" />
        </mxCell>
        <mxCell id="qxcU-tkXqdNGHr9PozQ2-119" value="CT_Ctrl" style="rounded=0;whiteSpace=wrap;html=1;" vertex="1" parent="1">
          <mxGeometry x="535" y="620" width="105" height="20" as="geometry" />
        </mxCell>
        <mxCell id="qxcU-tkXqdNGHr9PozQ2-120" value="FT_Mon" style="rounded=0;whiteSpace=wrap;html=1;" vertex="1" parent="1">
          <mxGeometry x="535" y="640" width="105" height="20" as="geometry" />
        </mxCell>
        <mxCell id="qxcU-tkXqdNGHr9PozQ2-121" value="FT PID Ctrl" style="rounded=0;whiteSpace=wrap;html=1;" vertex="1" parent="1">
          <mxGeometry x="535" y="660" width="105" height="20" as="geometry" />
        </mxCell>
        <mxCell id="qxcU-tkXqdNGHr9PozQ2-122" value="SYS_GPIO" style="rounded=0;whiteSpace=wrap;html=1;" vertex="1" parent="1">
          <mxGeometry x="392.5" y="830" width="105" height="20" as="geometry" />
        </mxCell>
        <mxCell id="qxcU-tkXqdNGHr9PozQ2-123" value="SYS_FPGA" style="rounded=0;whiteSpace=wrap;html=1;" vertex="1" parent="1">
          <mxGeometry x="392.5" y="850" width="105" height="20" as="geometry" />
        </mxCell>
        <mxCell id="qxcU-tkXqdNGHr9PozQ2-124" value="VOA_MON" style="rounded=0;whiteSpace=wrap;html=1;" vertex="1" parent="1">
          <mxGeometry x="284.5" y="680" width="105" height="20" as="geometry" />
        </mxCell>
        <mxCell id="qxcU-tkXqdNGHr9PozQ2-125" value="VOA_PDT" style="rounded=0;whiteSpace=wrap;html=1;" vertex="1" parent="1">
          <mxGeometry x="284.5" y="700" width="105" height="20" as="geometry" />
        </mxCell>
        <mxCell id="qxcU-tkXqdNGHr9PozQ2-126" value="SYS_PLIIC" style="rounded=0;whiteSpace=wrap;html=1;" vertex="1" parent="1">
          <mxGeometry x="620" y="830" width="105" height="20" as="geometry" />
        </mxCell>
        <mxCell id="qxcU-tkXqdNGHr9PozQ2-127" value="SYS_PWM" style="rounded=0;whiteSpace=wrap;html=1;" vertex="1" parent="1">
          <mxGeometry x="620" y="850" width="105" height="20" as="geometry" />
        </mxCell>
        <mxCell id="qxcU-tkXqdNGHr9PozQ2-128" value="SYS_QSPI" style="rounded=0;whiteSpace=wrap;html=1;" vertex="1" parent="1">
          <mxGeometry x="732.5" y="850" width="105" height="20" as="geometry" />
        </mxCell>
        <mxCell id="qxcU-tkXqdNGHr9PozQ2-129" value="SYS_Timer" style="rounded=0;whiteSpace=wrap;html=1;" vertex="1" parent="1">
          <mxGeometry x="507" y="830" width="105" height="20" as="geometry" />
        </mxCell>
        <mxCell id="qxcU-tkXqdNGHr9PozQ2-130" value="SYS_UART" style="rounded=0;whiteSpace=wrap;html=1;" vertex="1" parent="1">
          <mxGeometry x="507" y="850" width="105" height="20" as="geometry" />
        </mxCell>
        <mxCell id="qxcU-tkXqdNGHr9PozQ2-131" value="SYS_image" style="rounded=0;whiteSpace=wrap;html=1;" vertex="1" parent="1">
          <mxGeometry x="732.5" y="830" width="105" height="20" as="geometry" />
        </mxCell>
        <mxCell id="qxcU-tkXqdNGHr9PozQ2-132" value="SYS_CRC" style="rounded=0;whiteSpace=wrap;html=1;" vertex="1" parent="1">
          <mxGeometry x="160" y="830" width="105" height="20" as="geometry" />
        </mxCell>
        <mxCell id="qxcU-tkXqdNGHr9PozQ2-133" value="SYS_WDT" style="rounded=0;whiteSpace=wrap;html=1;" vertex="1" parent="1">
          <mxGeometry x="160" y="850" width="105" height="20" as="geometry" />
        </mxCell>
        <mxCell id="qxcU-tkXqdNGHr9PozQ2-134" value="SYS_Reset" style="rounded=0;whiteSpace=wrap;html=1;" vertex="1" parent="1">
          <mxGeometry x="277" y="830" width="105" height="20" as="geometry" />
        </mxCell>
        <mxCell id="qxcU-tkXqdNGHr9PozQ2-135" value="SYS_SPI" style="rounded=0;whiteSpace=wrap;html=1;" vertex="1" parent="1">
          <mxGeometry x="277" y="850" width="105" height="20" as="geometry" />
        </mxCell>
        <mxCell id="qxcU-tkXqdNGHr9PozQ2-136" value="" style="rounded=0;whiteSpace=wrap;html=1;" vertex="1" parent="1">
          <mxGeometry x="653" y="570" width="120" height="200" as="geometry" />
        </mxCell>
        <mxCell id="qxcU-tkXqdNGHr9PozQ2-137" value="CPLD Ctrl" style="text;html=1;align=center;verticalAlign=middle;whiteSpace=wrap;rounded=0;" vertex="1" parent="1">
          <mxGeometry x="653" y="570" width="80" height="30" as="geometry" />
        </mxCell>
        <mxCell id="qxcU-tkXqdNGHr9PozQ2-138" value="CPLD UPGD (JTAG)" style="rounded=0;whiteSpace=wrap;html=1;fillColor=#FFD966;" vertex="1" parent="1">
          <mxGeometry x="654.25" y="600" width="117.5" height="20" as="geometry" />
        </mxCell>
        <mxCell id="qxcU-tkXqdNGHr9PozQ2-139" value="CPLD_Read" style="rounded=0;whiteSpace=wrap;html=1;" vertex="1" parent="1">
          <mxGeometry x="660.5" y="620" width="105" height="20" as="geometry" />
        </mxCell>
        <mxCell id="qxcU-tkXqdNGHr9PozQ2-140" value="CPLD_Write" style="rounded=0;whiteSpace=wrap;html=1;" vertex="1" parent="1">
          <mxGeometry x="660.5" y="640" width="105" height="20" as="geometry" />
        </mxCell>
        <mxCell id="qxcU-tkXqdNGHr9PozQ2-141" value="CPLD Ctrl?" style="rounded=0;whiteSpace=wrap;html=1;fillColor=#FFD966;" vertex="1" parent="1">
          <mxGeometry x="660.5" y="660" width="105" height="20" as="geometry" />
        </mxCell>
        <mxCell id="qxcU-tkXqdNGHr9PozQ2-142" value="" style="rounded=0;whiteSpace=wrap;html=1;" vertex="1" parent="1">
          <mxGeometry x="778.5" y="570" width="120" height="200" as="geometry" />
        </mxCell>
        <mxCell id="qxcU-tkXqdNGHr9PozQ2-143" value="DGE Calc" style="text;html=1;align=center;verticalAlign=middle;whiteSpace=wrap;rounded=0;" vertex="1" parent="1">
          <mxGeometry x="773.5" y="570" width="80" height="30" as="geometry" />
        </mxCell>
        <mxCell id="qxcU-tkXqdNGHr9PozQ2-144" value="Set Flatness Curve" style="rounded=0;whiteSpace=wrap;html=1;fillColor=#FFD966;" vertex="1" parent="1">
          <mxGeometry x="788.5" y="600" width="105" height="20" as="geometry" />
        </mxCell>
        <mxCell id="qxcU-tkXqdNGHr9PozQ2-145" value="VOA_Ctrl(MODE6)" style="rounded=0;whiteSpace=wrap;html=1;fillColor=#FFD966;" vertex="1" parent="1">
          <mxGeometry x="788.5" y="620" width="105" height="20" as="geometry" />
        </mxCell>
        <mxCell id="qxcU-tkXqdNGHr9PozQ2-146" value="" style="rounded=0;whiteSpace=wrap;html=1;" vertex="1" parent="1">
          <mxGeometry x="904" y="570" width="120" height="200" as="geometry" />
        </mxCell>
        <mxCell id="qxcU-tkXqdNGHr9PozQ2-147" value="OSC Ctrl" style="text;html=1;align=center;verticalAlign=middle;whiteSpace=wrap;rounded=0;" vertex="1" parent="1">
          <mxGeometry x="904" y="570" width="80" height="30" as="geometry" />
        </mxCell>
        <mxCell id="qxcU-tkXqdNGHr9PozQ2-148" value="OSC UPGD" style="rounded=0;whiteSpace=wrap;html=1;fillColor=#FFD966;" vertex="1" parent="1">
          <mxGeometry x="911.5" y="600" width="105" height="20" as="geometry" />
        </mxCell>
        <mxCell id="qxcU-tkXqdNGHr9PozQ2-149" value="SFP_Read" style="rounded=0;whiteSpace=wrap;html=1;" vertex="1" parent="1">
          <mxGeometry x="911.5" y="620" width="105" height="20" as="geometry" />
        </mxCell>
        <mxCell id="qxcU-tkXqdNGHr9PozQ2-150" value="SFP_Write" style="rounded=0;whiteSpace=wrap;html=1;" vertex="1" parent="1">
          <mxGeometry x="911.5" y="640" width="105" height="20" as="geometry" />
        </mxCell>
        <mxCell id="qxcU-tkXqdNGHr9PozQ2-151" value="OSC_MON" style="rounded=0;whiteSpace=wrap;html=1;" vertex="1" parent="1">
          <mxGeometry x="911.5" y="660" width="105" height="20" as="geometry" />
        </mxCell>
        <mxCell id="qxcU-tkXqdNGHr9PozQ2-152" value="" style="rounded=0;whiteSpace=wrap;html=1;" vertex="1" parent="1">
          <mxGeometry x="911.5" y="220" width="120" height="300" as="geometry" />
        </mxCell>
        <mxCell id="qxcU-tkXqdNGHr9PozQ2-153" value="Event" style="text;html=1;align=center;verticalAlign=middle;whiteSpace=wrap;rounded=0;" vertex="1" parent="1">
          <mxGeometry x="911.5" y="220" width="80" height="30" as="geometry" />
        </mxCell>
        <mxCell id="qxcU-tkXqdNGHr9PozQ2-154" value="ALM ON/OFF" style="rounded=0;whiteSpace=wrap;html=1;" vertex="1" parent="1">
          <mxGeometry x="919" y="250" width="105" height="20" as="geometry" />
        </mxCell>
        <mxCell id="qxcU-tkXqdNGHr9PozQ2-155" value="Power ON" style="rounded=0;whiteSpace=wrap;html=1;" vertex="1" parent="1">
          <mxGeometry x="919" y="270" width="105" height="20" as="geometry" />
        </mxCell>
        <mxCell id="qxcU-tkXqdNGHr9PozQ2-156" value="" style="rounded=0;whiteSpace=wrap;html=1;" vertex="1" parent="1">
          <mxGeometry x="1040" y="220" width="120" height="300" as="geometry" />
        </mxCell>
        <mxCell id="qxcU-tkXqdNGHr9PozQ2-157" value="CPLD Ctl" style="rounded=0;whiteSpace=wrap;html=1;fillColor=#FFD966;" vertex="1" parent="1">
          <mxGeometry x="1047.5" y="250" width="105" height="20" as="geometry" />
        </mxCell>
        <mxCell id="qxcU-tkXqdNGHr9PozQ2-158" value="DGE Calc" style="rounded=0;whiteSpace=wrap;html=1;fillColor=#FFD966;" vertex="1" parent="1">
          <mxGeometry x="1047.5" y="270" width="105" height="20" as="geometry" />
        </mxCell>
        <mxCell id="qxcU-tkXqdNGHr9PozQ2-159" value="Module/Device" style="text;html=1;align=center;verticalAlign=middle;whiteSpace=wrap;rounded=0;" vertex="1" parent="1">
          <mxGeometry x="1050" y="220" width="80" height="30" as="geometry" />
        </mxCell>
        <mxCell id="qxcU-tkXqdNGHr9PozQ2-160" value="OSC Ctrl" style="rounded=0;whiteSpace=wrap;html=1;fillColor=#FFD966;" vertex="1" parent="1">
          <mxGeometry x="1047.5" y="290" width="105" height="20" as="geometry" />
        </mxCell>
        <mxCell id="qxcU-tkXqdNGHr9PozQ2-161" value="Reset" style="rounded=0;whiteSpace=wrap;html=1;" vertex="1" parent="1">
          <mxGeometry x="919" y="290" width="105" height="20" as="geometry" />
        </mxCell>
        <mxCell id="qxcU-tkXqdNGHr9PozQ2-162" value="Table error" style="rounded=0;whiteSpace=wrap;html=1;" vertex="1" parent="1">
          <mxGeometry x="919" y="310" width="105" height="20" as="geometry" />
        </mxCell>
        <mxCell id="qxcU-tkXqdNGHr9PozQ2-163" value="MEMS Switch" style="rounded=0;whiteSpace=wrap;html=1;fillColor=#FFD966;" vertex="1" parent="1">
          <mxGeometry x="1047.5" y="310" width="105" height="20" as="geometry" />
        </mxCell>
        <mxCell id="qxcU-tkXqdNGHr9PozQ2-164" value="Pump" style="rounded=0;whiteSpace=wrap;html=1;" vertex="1" parent="1">
          <mxGeometry x="1047.5" y="330" width="105" height="20" as="geometry" />
        </mxCell>
        <mxCell id="qxcU-tkXqdNGHr9PozQ2-165" value="VOA" style="rounded=0;whiteSpace=wrap;html=1;" vertex="1" parent="1">
          <mxGeometry x="1047.5" y="350" width="105" height="20" as="geometry" />
        </mxCell>
        <mxCell id="qxcU-tkXqdNGHr9PozQ2-166" value="PD" style="rounded=0;whiteSpace=wrap;html=1;" vertex="1" parent="1">
          <mxGeometry x="1047.5" y="370" width="105" height="20" as="geometry" />
        </mxCell>
        <mxCell id="qxcU-tkXqdNGHr9PozQ2-167" value="Temp/Heater" style="rounded=0;whiteSpace=wrap;html=1;" vertex="1" parent="1">
          <mxGeometry x="1047.5" y="390" width="105" height="20" as="geometry" />
        </mxCell>
        <mxCell id="qxcU-tkXqdNGHr9PozQ2-168" value="" style="rounded=0;whiteSpace=wrap;html=1;" vertex="1" parent="1">
          <mxGeometry x="1031.5" y="570" width="120" height="200" as="geometry" />
        </mxCell>
        <mxCell id="qxcU-tkXqdNGHr9PozQ2-169" value="MEMS Switch" style="text;html=1;align=center;verticalAlign=middle;whiteSpace=wrap;rounded=0;" vertex="1" parent="1">
          <mxGeometry x="1031.5" y="570" width="80" height="30" as="geometry" />
        </mxCell>
        <mxCell id="qxcU-tkXqdNGHr9PozQ2-170" value="CTL DAC" style="rounded=0;whiteSpace=wrap;html=1;fillColor=#FFD966;" vertex="1" parent="1">
          <mxGeometry x="1039" y="600" width="105" height="20" as="geometry" />
        </mxCell>
        <mxCell id="qxcU-tkXqdNGHr9PozQ2-171" value="CTL Port" style="rounded=0;whiteSpace=wrap;html=1;fillColor=#FFD966;" vertex="1" parent="1">
          <mxGeometry x="1039" y="620" width="105" height="20" as="geometry" />
        </mxCell>
        <mxCell id="qxcU-tkXqdNGHr9PozQ2-172" value="CTL X/Y" style="rounded=0;whiteSpace=wrap;html=1;fillColor=#FFD966;" vertex="1" parent="1">
          <mxGeometry x="1039" y="640" width="105" height="20" as="geometry" />
        </mxCell>
        <mxCell id="qxcU-tkXqdNGHr9PozQ2-173" value="" style="rounded=0;whiteSpace=wrap;html=1;" vertex="1" parent="1">
          <mxGeometry x="1200" y="50" width="160" height="900" as="geometry" />
        </mxCell>
        <mxCell id="qxcU-tkXqdNGHr9PozQ2-174" value="Data LUT" style="text;html=1;align=center;verticalAlign=middle;whiteSpace=wrap;rounded=0;" vertex="1" parent="1">
          <mxGeometry x="1215" y="50" width="60" height="30" as="geometry" />
        </mxCell>
        <mxCell id="qxcU-tkXqdNGHr9PozQ2-175" value="MFG LUT" style="rounded=0;whiteSpace=wrap;html=1;" vertex="1" parent="1">
          <mxGeometry x="1220" y="80" width="120" height="30" as="geometry" />
        </mxCell>
        <mxCell id="qxcU-tkXqdNGHr9PozQ2-176" value="HW LUT" style="rounded=0;whiteSpace=wrap;html=1;" vertex="1" parent="1">
          <mxGeometry x="1220" y="110" width="120" height="30" as="geometry" />
        </mxCell>
        <mxCell id="qxcU-tkXqdNGHr9PozQ2-177" value="SW LUT" style="rounded=0;whiteSpace=wrap;html=1;" vertex="1" parent="1">
          <mxGeometry x="1220" y="140" width="120" height="30" as="geometry" />
        </mxCell>
        <mxCell id="qxcU-tkXqdNGHr9PozQ2-178" value="PD LUT" style="rounded=0;whiteSpace=wrap;html=1;" vertex="1" parent="1">
          <mxGeometry x="1220" y="170" width="120" height="30" as="geometry" />
        </mxCell>
        <mxCell id="qxcU-tkXqdNGHr9PozQ2-179" value="L-PUMP LUT" style="rounded=0;whiteSpace=wrap;html=1;" vertex="1" parent="1">
          <mxGeometry x="1220" y="200" width="120" height="30" as="geometry" />
        </mxCell>
        <mxCell id="qxcU-tkXqdNGHr9PozQ2-180" value="H-PUMP LUT" style="rounded=0;whiteSpace=wrap;html=1;" vertex="1" parent="1">
          <mxGeometry x="1220" y="230" width="120" height="30" as="geometry" />
        </mxCell>
        <mxCell id="qxcU-tkXqdNGHr9PozQ2-181" value="PDT LUT" style="rounded=0;whiteSpace=wrap;html=1;" vertex="1" parent="1">
          <mxGeometry x="1220" y="260" width="120" height="30" as="geometry" />
        </mxCell>
        <mxCell id="qxcU-tkXqdNGHr9PozQ2-182" value="L-GAIN LUT" style="rounded=0;whiteSpace=wrap;html=1;" vertex="1" parent="1">
          <mxGeometry x="1220" y="290" width="120" height="30" as="geometry" />
        </mxCell>
        <mxCell id="qxcU-tkXqdNGHr9PozQ2-183" value="H-GAIN LUT" style="rounded=0;whiteSpace=wrap;html=1;" vertex="1" parent="1">
          <mxGeometry x="1220" y="320" width="120" height="30" as="geometry" />
        </mxCell>
        <mxCell id="qxcU-tkXqdNGHr9PozQ2-184" value="VOA LUT" style="rounded=0;whiteSpace=wrap;html=1;" vertex="1" parent="1">
          <mxGeometry x="1220" y="350" width="120" height="30" as="geometry" />
        </mxCell>
        <mxCell id="qxcU-tkXqdNGHr9PozQ2-185" value="DGE LUT" style="rounded=0;whiteSpace=wrap;html=1;" vertex="1" parent="1">
          <mxGeometry x="1220" y="380" width="120" height="30" as="geometry" />
        </mxCell>
        <mxCell id="qxcU-tkXqdNGHr9PozQ2-186" value="Customer" style="rounded=0;whiteSpace=wrap;html=1;" vertex="1" parent="1">
          <mxGeometry x="1220" y="410" width="120" height="30" as="geometry" />
        </mxCell>
        <mxCell id="qxcU-tkXqdNGHr9PozQ2-187" value="MEMS-SW" style="rounded=0;whiteSpace=wrap;html=1;fillColor=#FFD966;" vertex="1" parent="1">
          <mxGeometry x="1220" y="440" width="120" height="30" as="geometry" />
        </mxCell>
        <mxCell id="qxcU-tkXqdNGHr9PozQ2-188" value="IL/WDL LUT" style="rounded=0;whiteSpace=wrap;html=1;fillColor=#FFD966;" vertex="1" parent="1">
          <mxGeometry x="1220" y="470" width="120" height="30" as="geometry" />
        </mxCell>
        <mxCell id="qxcU-tkXqdNGHr9PozQ2-189" value="OSC_CTL" style="rounded=0;whiteSpace=wrap;html=1;fillColor=#FFD966;" vertex="1" parent="1">
          <mxGeometry x="911.5" y="680" width="105" height="20" as="geometry" />
        </mxCell>
      </root>
    </mxGraphModel>
  </diagram>
</mxfile>
